<svg width="44" height="38" viewBox="0 0 44 38" fill="none" xmlns="http://www.w3.org/2000/svg">
<path d="M32.42 14L23.66 0.890039C23.28 0.310039 22.64 0.0400391 22 0.0400391C21.36 0.0400391 20.72 0.320039 20.34 0.890039L11.58 14H2C0.9 14 0 14.9 0 16C0 16.19 0.0299999 16.37 0.0699999 16.54L5.14 35.08C5.61 36.76 7.16 38 9 38H35C36.84 38 38.39 36.76 38.85 35.07L43.92 16.53C43.97 16.37 44 16.19 44 16C44 14.9 43.1 14 42 14H32.42ZM16 14L22 5.20004L28 14H16ZM22 30C19.79 30 18 28.21 18 26C18 23.79 19.79 22 22 22C24.21 22 26 23.79 26 26C26 28.21 24.21 30 22 30Z" fill="black"/>
</svg>
