<svg width="42" height="42" viewBox="0 0 42 42" fill="none" xmlns="http://www.w3.org/2000/svg">
<path fill-rule="evenodd" clip-rule="evenodd" d="M0 21C0 32.598 9.36301 42 20.9129 42C32.4627 42 41.8257 32.598 41.8257 21C41.8257 9.40202 32.4627 0 20.9129 0C9.36301 0 0 9.40202 0 21ZM17.0788 30.625L17.4347 25.272L17.4344 25.2717L27.1318 16.4841C27.5574 16.1048 27.0388 15.9199 26.4738 16.2639L14.5059 23.8458L9.33644 22.2256C8.22006 21.8823 8.21205 21.112 9.58708 20.5582L29.7314 12.7583C30.6514 12.3388 31.5395 12.9802 31.1882 14.3942L27.7576 30.6277C27.5181 31.7813 26.824 32.0572 25.8622 31.5243L20.6364 27.6473L18.1245 30.1C18.1166 30.1077 18.1087 30.1154 18.1008 30.1231C17.8199 30.3978 17.5875 30.625 17.0788 30.625Z" fill="white"/>
</svg>
